# xmcd
#
# Track frame offsets:
#	150
#	16200
#	28707
#	42688
#	55514
#	74887
#	105416
#	120182
#	133369
#	153603
#	167441
#	181744
#	195426
#	213417
#	226780
#	237866
#	252281
#
# Disc length: 3554
#
# Revision: 2
# Processed by: cddbd v1.5.1PL0 Copyright (c) Steve Scherf et al.
# Submitted via: audiograbber 1.83.01
# Normalized: r1:TDELIM( - )
#
DISCID=e00de011
DTITLE=Various Artist - EK0011
DYEAR=1900
DGENRE=Karaoke R&B
TTITLE0=Wildon Pickett - Mustang Sally
TTITLE1=Isley Brothers, The - This Old Heart Of Mine
TTITLE2=Ben E King - Stand By Me
TTITLE3=Temptations, The - Get Ready
TTITLE4=Temptations, The - Ball Of Confusion
TTITLE5=Temptations, The - Papa Was A Rolling Stone
TTITLE6=Supremes, The and The Temptations - I'm Gonna Make You Love Me
TTITLE7=Stevie Wonder - Uptight Everything's Alright
TTITLE8=Stevie Wonder - Lately
TTITLE9=Four Tops, The - Reach Out and I'll Be There
TTITLE10=Four Tops, The - I Can't Help Myself (Sugar Pie Honey Bunch)
TTITLE11=Four Tops, The - It's The Same Old Song
TTITLE12=Four Tops, The - Loco In Acapulco
TTITLE13=Four Tops, The - If I Were A Carpenter
TTITLE14=Arthur Conley - Sweet Soul Music
TTITLE15=Junior Walker and The All Stars - I'm A Road Runner
TTITLE16=Marvin Gaye - I Heard It Through The Grapevine
EXTD=
EXTT0=
EXTT1=
EXTT2=
EXTT3=
EXTT4=
EXTT5=
EXTT6=
EXTT7=
EXTT8=
EXTT9=
EXTT10=
EXTT11=
EXTT12=
EXTT13=
EXTT14=
EXTT15=
EXTT16=
PLAYORDER=
